<svg xmlns="http://www.w3.org/2000/svg" viewBox="0 0 43.75 43.75" data-asc="1" width="43.75" height="43.75"><defs/><g fill="#000000"><g transform="translate(0, 0)"><path d="M12.50 43.75L12.50 37.50L6.25 37.50L6.25 31.25L0 31.25L0 12.50L6.25 12.50L6.25 6.25L12.50 6.25L12.50 0L31.25 0L31.25 6.25L37.50 6.25L37.50 12.50L43.75 12.50L43.75 31.25L37.50 31.25L37.50 37.50L31.25 37.50L31.25 43.75L12.50 43.75M18.75 37.50L31.25 37.50L31.25 12.50L25 12.50L25 6.25L12.50 6.25L12.50 31.25L18.75 31.25L18.75 37.50Z"/></g></g></svg>